<svg width="44" height="44" viewBox="0 0 44 44" fill="none" xmlns="http://www.w3.org/2000/svg">
<path d="M34.2704 20.896H43.7042C43.8516 20.896 43.999 20.7489 43.999 20.6017C43.3357 10.7422 36.1866 2.57496 26.7528 0.514759C26.5317 0.441181 26.3106 0.735495 26.5317 0.956231C30.9538 5.886 33.7545 12.9495 34.0493 20.6753C33.9756 20.8225 34.123 20.896 34.2704 20.896Z" fill="#091E42"/>
<path d="M22.1839 0C22.1102 0 22.0365 0 21.9628 0C21.8891 0 21.8154 0 21.7417 0C16.0667 4.34114 12.529 12.0669 12.1605 20.602C12.1605 20.7492 12.3079 20.8963 12.4553 20.8963H31.4704C31.6178 20.8963 31.7652 20.7492 31.7652 20.602C31.4704 12.0669 27.859 4.34114 22.1839 0Z" fill="#36B37E"/>
<path d="M12.4553 23.1036C12.3079 23.1036 12.1605 23.2507 12.1605 23.3979C12.529 32.0066 16.0667 39.6588 21.7417 43.9999C21.8154 43.9999 21.8891 43.9999 21.9628 43.9999C22.0365 43.9999 22.1102 43.9999 22.1839 43.9999C27.859 39.6588 31.3967 31.933 31.7652 23.3979C31.7652 23.2507 31.6178 23.1036 31.4704 23.1036H12.4553Z" fill="#091E42"/>
<path d="M33.9756 23.3243C33.6808 31.0501 30.9538 38.1136 26.5317 43.0434C26.3843 43.2641 26.5317 43.5584 26.7528 43.4849C36.1867 41.4247 43.4094 33.2574 43.999 23.3979C43.999 23.2507 43.8516 23.1036 43.7042 23.1036H34.2704C34.123 23.1036 33.9756 23.2507 33.9756 23.3243Z" fill="#36B37E"/>
<path d="M9.72815 23.1036H0.294319C0.146915 23.1036 -0.000488281 23.2507 -0.000488281 23.3979C0.589126 33.2574 7.81191 41.4247 17.2457 43.4849C17.4668 43.5584 17.688 43.2641 17.4668 43.0434C12.971 38.1136 10.2441 31.0501 9.94926 23.3243C10.023 23.2507 9.87556 23.1036 9.72815 23.1036Z" fill="#36B37E"/>
<path d="M10.023 20.6753C10.3178 12.9495 13.0447 5.886 17.4668 0.956231C17.6143 0.735495 17.4668 0.441181 17.2457 0.514759C7.81191 2.57496 0.589126 10.7422 -0.000488281 20.6017C-0.000488281 20.7489 0.146915 20.896 0.294319 20.896H9.72815C9.87556 20.896 10.023 20.8225 10.023 20.6753Z" fill="#091E42"/>
</svg>
