<svg width="21" height="20" viewBox="0 0 21 20" fill="none" xmlns="http://www.w3.org/2000/svg">
<path d="M14.061 3.03455C10.5723 3.03455 7.70524 5.86213 7.70524 9.37937V19.3104C7.70524 19.6897 8.01612 20.0001 8.39608 20.0001H11.9885C12.3685 20.0001 12.6793 19.6897 12.6793 19.3104V9.65524C12.6793 8.89661 13.3011 8.27592 14.061 8.27592C14.821 8.27592 15.4427 8.89661 15.4427 9.65524V19.3104C15.4427 19.6897 15.7536 20.0001 16.1336 20.0001H19.726C20.1059 20.0001 20.4168 19.6897 20.4168 19.3104V9.37937C20.4168 5.89662 17.5843 3.03455 14.061 3.03455Z" fill="#505F79"/>
<path d="M2.90371 0C1.52202 0 0.416664 1.10345 0.416664 2.48276C0.416664 3.86207 1.52202 4.96552 2.90371 4.96552C4.2854 4.96552 5.39076 3.86207 5.39076 2.48276C5.39076 1.10345 4.2854 0 2.90371 0Z" fill="#505F79"/>
<path d="M4.69991 6.27588H1.10751C0.727545 6.27588 0.416664 6.58622 0.416664 6.96553V19.3104C0.416664 19.6897 0.727545 20 1.10751 20H4.69991C5.07988 20 5.39076 19.6897 5.39076 19.3104V6.96553C5.39076 6.58622 5.07988 6.27588 4.69991 6.27588Z" fill="#505F79"/>
</svg>
